<?xml version="1.0" encoding="UTF-8"?>
<!DOCTYPE svg PUBLIC "-//W3C//DTD SVG 1.1//EN" "http://www.w3.org/Graphics/SVG/1.1/DTD/svg11.dtd">
<svg xmlns="http://www.w3.org/2000/svg" version="1.1" width="512px" height="512px" style="shape-rendering:geometricPrecision; text-rendering:geometricPrecision; image-rendering:optimizeQuality; fill-rule:evenodd; clip-rule:evenodd" xmlns:xlink="http://www.w3.org/1999/xlink">
<g><path style="opacity:0.97" fill="#355874" d="M 242.5,-0.5 C 246.5,-0.5 250.5,-0.5 254.5,-0.5C 259.229,2.26176 264.229,4.76176 269.5,7C 274.758,12.4164 277.924,18.9164 279,26.5C 280.019,34.3082 279.519,41.9748 277.5,49.5C 281.023,50.1418 284.356,51.3084 287.5,53C 303.154,69.479 316.487,87.6456 327.5,107.5C 353.585,102.206 379.252,103.706 404.5,112C 416.907,117.284 428.074,124.45 438,133.5C 451.784,148.52 457.784,166.187 456,186.5C 447.127,212.086 433.293,234.586 414.5,254C 425.495,265.181 435.662,277.014 445,289.5C 450.209,298.254 454.042,307.587 456.5,317.5C 469.472,328.127 474.638,341.793 472,358.5C 471.748,365.842 470.081,372.842 467,379.5C 461.18,388.33 453.347,394.497 443.5,398C 435.113,399.331 427.113,398.164 419.5,394.5C 408.463,400.234 396.797,404.068 384.5,406C 368.862,407.296 353.195,407.796 337.5,407.5C 327.742,435.432 310.075,456.932 284.5,472C 279.166,475.168 273.499,477.501 267.5,479C 234.977,483.375 206.311,475.042 181.5,454C 170.62,440.242 162.62,424.909 157.5,408C 149.527,408.345 141.527,408.845 133.5,409.5C 127.484,409.198 121.484,408.698 115.5,408C 104.484,405.659 93.4844,403.326 82.5,401C 81.0692,400.535 79.9025,399.701 79,398.5C 55.1235,410.865 35.7901,405.865 21,383.5C 17.603,375.225 17.7697,367.059 21.5,359C 20.7069,357.915 20.0402,356.748 19.5,355.5C 22.7783,343.713 29.945,335.046 41,329.5C 45.3917,303.221 55.8917,279.721 72.5,259C 53.3782,232.636 43.2116,203.136 42,170.5C 42.7906,151.089 50.2906,134.922 64.5,122C 78.6428,113.625 93.9761,108.625 110.5,107C 121.48,105.334 132.48,105.001 143.5,106C 153.754,79.4936 170.088,57.4936 192.5,40C 196.888,37.1394 201.554,34.8061 206.5,33C 213.248,16.0816 225.248,4.91492 242.5,-0.5 Z M 204.5,57.5 C 207.202,60.5181 209.702,63.8514 212,67.5C 226.258,80.853 242.091,83.0197 259.5,74C 264.367,69.4677 268.867,64.6344 273,59.5C 284.326,75.6961 295.159,92.3628 305.5,109.5C 280.253,115.193 255.753,123.193 232,133.5C 210.79,125.541 189.29,118.374 167.5,112C 166.446,110.612 166.28,109.112 167,107.5C 174.948,87.2054 187.448,70.5388 204.5,57.5 Z M 119.5,124.5 C 125.888,124.312 132.222,124.812 138.5,126C 136.203,134.315 134.703,142.815 134,151.5C 132.877,166.81 132.21,182.143 132,197.5C 115.401,210.763 100.068,225.43 86,241.5C 71.3674,220.604 62.8674,197.437 60.5,172C 63.5278,148.632 76.5278,133.965 99.5,128C 106.254,126.502 112.921,125.335 119.5,124.5 Z M 340.5,125.5 C 368.509,123.503 394.509,129.67 418.5,144C 434.359,156.04 440.026,171.706 435.5,191C 428.366,210.799 417.199,227.966 402,242.5C 390.274,231.604 378.107,221.271 365.5,211.5C 360.765,181.961 351.431,153.961 337.5,127.5C 338.602,126.824 339.602,126.158 340.5,125.5 Z M 312.5,128.5 C 313.552,128.351 314.552,128.517 315.5,129C 329.487,149.308 338.987,171.475 344,195.5C 325.253,182.543 306.42,169.71 287.5,157C 278.221,153.027 269.221,148.527 260.5,143.5C 277.407,136.611 294.74,131.611 312.5,128.5 Z M 160.5,129.5 C 176.536,133.591 192.203,138.758 207.5,145C 188.633,154.876 171.133,166.71 155,180.5C 154.474,163.234 156.308,146.234 160.5,129.5 Z M 230.5,154.5 C 233.565,154.241 236.065,155.241 238,157.5C 238.414,157.043 238.914,156.709 239.5,156.5C 280.635,173.797 317.468,197.463 350,227.5C 352.289,247.948 351.622,268.281 348,288.5C 343.779,292.689 339.279,296.522 334.5,300C 322.5,308 310.5,316 298.5,324C 274.199,336.651 249.532,348.485 224.5,359.5C 204.833,350.342 186.5,339.175 169.5,326C 168.663,324.989 168.33,323.822 168.5,322.5C 166.037,322.219 163.87,321.219 162,319.5C 160.675,313.568 159.675,307.568 159,301.5C 158.114,269.577 156.614,237.744 154.5,206C 178.073,186.264 203.407,169.098 230.5,154.5 Z M 133.5,222.5 C 135.011,232.626 135.844,242.959 136,253.5C 136.667,268.167 136.667,282.833 136,297.5C 126.333,288.5 116.667,279.5 107,270.5C 103.469,266.603 100.303,262.436 97.5,258C 108.731,245.268 120.731,233.435 133.5,222.5 Z M 367.5,241.5 C 373.669,246.833 380.002,251.999 386.5,257C 380.314,262.687 373.981,268.187 367.5,273.5C 367.273,262.886 367.273,252.219 367.5,241.5 Z M 399.5,268.5 C 414.252,282.084 426.585,297.584 436.5,315C 402.885,324.565 392.218,345.565 404.5,378C 398.183,381.328 391.516,383.661 384.5,385C 371.551,386.662 358.551,387.496 345.5,387.5C 352.751,358.413 358.918,329.08 364,299.5C 376.322,289.674 388.156,279.341 399.5,268.5 Z M 84.5,274.5 C 101.257,293.259 119.591,310.259 139.5,325.5C 143.706,346.531 148.04,367.531 152.5,388.5C 133.237,392.865 114.237,391.865 95.5,385.5C 96.3908,379.822 97.3908,374.156 98.5,368.5C 95.2633,351.424 86.2633,338.257 71.5,329C 67.5,328 63.5,327 59.5,326C 64.796,307.244 73.1293,290.077 84.5,274.5 Z M 344.5,313.5 C 345.152,314.449 345.486,315.615 345.5,317C 341.756,340.558 336.423,363.724 329.5,386.5C 318.437,385.515 307.437,384.015 296.5,382C 280.443,377.87 264.443,373.536 248.5,369C 267.09,360.912 285.423,352.246 303.5,343C 317.906,334.079 331.573,324.245 344.5,313.5 Z M 167.5,347.5 C 179,354.811 190.666,361.978 202.5,369C 193.646,373.843 184.479,378.01 175,381.5C 172.179,370.246 169.679,358.913 167.5,347.5 Z M 223.5,380.5 C 242.479,387.582 261.812,393.749 281.5,399C 294.27,402.721 307.27,405.221 320.5,406.5C 297.224,456.798 260.224,470.631 209.5,448C 193.108,436.737 183.108,421.237 179.5,401.5C 179.818,400.353 180.484,399.519 181.5,399C 195.892,393.49 209.892,387.323 223.5,380.5 Z"/></g>
<g><path style="opacity:1" fill="#f1ce89" d="M 242.5,18.5 C 253.973,17.3285 260.306,22.3285 261.5,33.5C 261.493,43.3443 257.827,51.511 250.5,58C 237.991,64.1586 229.157,60.6586 224,47.5C 222.713,41.9816 223.713,36.9816 227,32.5C 231.765,27.2277 236.931,22.5611 242.5,18.5 Z"/></g>
<g><path style="opacity:0.952" fill="#345873" d="M 86.5,60.5 C 93.3683,61.357 95.7017,65.0236 93.5,71.5C 53.2595,97.285 32.0928,134.285 30,182.5C 26,186.5 22,186.5 18,182.5C 16.2744,139.458 31.4411,103.625 63.5,75C 70.8937,69.6419 78.5603,64.8085 86.5,60.5 Z"/></g>
<g><path style="opacity:0.955" fill="#345874" d="M 368.5,64.5 C 409.264,62.2427 442.764,76.5761 469,107.5C 471.535,114.598 469.035,118.098 461.5,118C 445.781,101.47 427.114,89.4702 405.5,82C 396.113,79.9445 386.613,78.7779 377,78.5C 364.842,79.464 352.675,79.6307 340.5,79C 337.833,75.6667 337.833,72.3333 340.5,69C 349.975,67.5279 359.309,66.0279 368.5,64.5 Z"/></g>
<g><path style="opacity:0.986" fill="#375975" d="M 248.5,201.5 C 271.766,200.543 289.266,209.877 301,229.5C 308.65,249.606 305.317,267.606 291,283.5C 267.368,311.27 238.535,318.77 204.5,306C 180.418,290.407 174.585,269.573 187,243.5C 193.099,239.402 197.766,234.069 201,227.5C 213.966,213.437 229.799,204.77 248.5,201.5 Z"/></g>
<g><path style="opacity:1" fill="#e69295" d="M 233.5,227.5 C 234.239,227.369 234.906,227.536 235.5,228C 224.687,241.114 213.521,253.947 202,266.5C 201.333,263.833 201.333,261.167 202,258.5C 208.189,251.946 214.022,245.112 219.5,238C 223.785,233.867 228.452,230.367 233.5,227.5 Z"/></g>
<g><path style="opacity:1" fill="#eb9495" d="M 257.5,221.5 C 270.857,223.369 280.357,230.369 286,242.5C 286.667,245.833 286.667,249.167 286,252.5C 283.324,248.364 279.824,247.531 275.5,250C 260.833,264 246.167,278 231.5,292C 228.366,292.79 225.366,292.457 222.5,291C 240.031,273.801 257.865,256.967 276,240.5C 279.105,232.946 276.605,229.113 268.5,229C 248.811,246.356 230.144,264.69 212.5,284C 211.365,284.749 210.365,284.583 209.5,283.5C 208.509,282.335 207.509,281.168 206.5,280C 217.653,266.845 228.82,253.678 240,240.5C 245.032,235.133 250.365,230.133 256,225.5C 256.791,224.255 257.291,222.922 257.5,221.5 Z"/></g>
<g><path style="opacity:0.952" fill="#345874" d="M 454.5,251.5 C 456.527,251.338 458.527,251.505 460.5,252C 471.043,259.542 479.876,268.709 487,279.5C 492.202,290.97 494.536,302.97 494,315.5C 490.294,320.268 486.294,320.601 482,316.5C 479.605,306.314 476.605,296.314 473,286.5C 466.611,277.444 458.944,269.777 450,263.5C 449.009,261.553 448.675,259.553 449,257.5C 450.36,254.977 452.193,252.977 454.5,251.5 Z"/></g>
<g><path style="opacity:1" fill="#e59294" d="M 284.5,258.5 C 279.729,275.097 268.729,285.597 251.5,290C 262.698,279.633 273.698,269.133 284.5,258.5 Z"/></g>
<g><path style="opacity:1" fill="#99d6c2" d="M 435.5,332.5 C 447.638,334.664 452.971,341.998 451.5,354.5C 452.654,367.819 446.82,375.819 434,378.5C 425.384,376.551 420.051,371.218 418,362.5C 414.947,347.101 420.78,337.101 435.5,332.5 Z"/></g>
<g><path style="opacity:1" fill="#80a6d4" d="M 52.5,342.5 C 58.9742,342.119 64.9742,343.619 70.5,347C 75.7651,353.198 79.4317,360.198 81.5,368C 79.3804,378.776 72.7137,384.776 61.5,386C 54.5155,387.093 47.8488,386.093 41.5,383C 35.9411,377.597 34.1078,371.097 36,363.5C 36.7873,359.821 37.6207,356.154 38.5,352.5C 42.9512,348.692 47.6179,345.359 52.5,342.5 Z"/></g>
<g><path style="opacity:0.946" fill="#345874" d="M 323.5,451.5 C 330.825,450.992 333.658,454.326 332,461.5C 316.532,484.97 295.365,500.804 268.5,509C 253.836,510.975 239.169,510.975 224.5,509C 216.452,507.981 213.952,503.815 217,496.5C 218.313,495.427 219.813,494.76 221.5,494.5C 252.04,503.027 279.04,496.86 302.5,476C 309.394,467.616 316.394,459.45 323.5,451.5 Z"/></g>
</svg>
