<?xml version="1.0" encoding="UTF-8"?>
<!DOCTYPE svg PUBLIC "-//W3C//DTD SVG 1.1//EN" "http://www.w3.org/Graphics/SVG/1.1/DTD/svg11.dtd">
<svg xmlns="http://www.w3.org/2000/svg" version="1.1" width="512px" height="512px" style="shape-rendering:geometricPrecision; text-rendering:geometricPrecision; image-rendering:optimizeQuality; fill-rule:evenodd; clip-rule:evenodd" xmlns:xlink="http://www.w3.org/1999/xlink">
<g><path style="opacity:0.985" fill="#010101" d="M 295.5,7.5 C 319.836,7.33336 344.169,7.50003 368.5,8C 393.957,16.5077 403.791,34.0077 398,60.5C 394.18,71.4875 387.013,79.4875 376.5,84.5C 375.149,95.5285 375.316,106.528 377,117.5C 381.918,125 386.584,132.667 391,140.5C 394,153.336 389.5,162.17 377.5,167C 374.183,167.498 370.85,167.665 367.5,167.5C 370.151,184.359 364.151,196.859 349.5,205C 345.037,206.975 340.371,207.808 335.5,207.5C 335.5,217.833 335.5,228.167 335.5,238.5C 374.656,233.685 405.156,215.019 427,182.5C 431.527,174.779 435.527,166.779 439,158.5C 439.333,150.833 439.667,143.167 440,135.5C 446.605,116.934 459.772,109.101 479.5,112C 496.763,117.45 504.763,129.283 503.5,147.5C 502.263,177.381 492.43,204.047 474,227.5C 451.726,253.221 425.56,274.054 395.5,290C 385.773,294.131 375.773,297.464 365.5,300C 364.919,300.893 364.585,301.893 364.5,303C 365.591,307.789 366.424,312.622 367,317.5C 367.333,330.167 367.667,342.833 368,355.5C 411.875,394.934 433.042,444.267 431.5,503.5C 308.833,503.5 186.167,503.5 63.5,503.5C 61.7078,465.667 70.7078,430.667 90.5,398.5C 78.2843,391.421 71.6177,380.754 70.5,366.5C 56.1028,360.655 42.1028,354.155 28.5,347C 43.9704,313.226 59.3037,279.393 74.5,245.5C 75.365,244.417 76.365,244.251 77.5,245C 91.3826,251.441 105.383,257.608 119.5,263.5C 132.57,251.261 146.903,240.761 162.5,232C 150.838,231.5 139.171,231.333 127.5,231.5C 127.5,226.167 127.5,220.833 127.5,215.5C 152.836,215.667 178.169,215.5 203.5,215C 225.724,208.555 248.39,206.055 271.5,207.5C 271.719,206.325 271.386,205.325 270.5,204.5C 224.571,182.329 203.738,145.662 208,94.5C 217.799,45.8669 246.966,16.8669 295.5,7.5 Z"/></g>
<g><path style="opacity:1" fill="#000000" d="M 103.5,23.5 C 135.5,23.5 167.5,23.5 199.5,23.5C 199.5,28.8333 199.5,34.1667 199.5,39.5C 167.5,39.5 135.5,39.5 103.5,39.5C 103.5,34.1667 103.5,28.8333 103.5,23.5 Z"/></g>
<g><path style="opacity:1" fill="#646c77" d="M 297.5,23.5 C 319.836,23.3334 342.169,23.5 364.5,24C 381.417,30.0014 386.917,41.5014 381,58.5C 377.206,64.9657 371.706,69.1323 364.5,71C 351.167,71.6667 337.833,71.6667 324.5,71C 319.465,67.9867 318.298,63.8201 321,58.5C 321.903,57.2986 323.069,56.4652 324.5,56C 328.152,55.5014 331.818,55.3347 335.5,55.5C 335.5,50.1667 335.5,44.8333 335.5,39.5C 320.221,37.3022 309.721,43.3022 304,57.5C 303.352,62.2041 303.519,66.8708 304.5,71.5C 287.502,71.7555 276.669,80.0888 272,96.5C 271.667,102.5 271.333,108.5 271,114.5C 253.548,128.038 250.882,144.038 263,162.5C 265.667,165.167 268.333,167.833 271,170.5C 271.667,175.833 271.667,181.167 271,186.5C 234.857,165.545 219.524,134.211 225,92.5C 235.086,54.578 259.253,31.578 297.5,23.5 Z"/></g>
<g><path style="opacity:1" fill="#000000" d="M 7.5,55.5 C 39.5,55.5 71.5,55.5 103.5,55.5C 103.5,60.8333 103.5,66.1667 103.5,71.5C 71.5,71.5 39.5,71.5 7.5,71.5C 7.5,66.1667 7.5,60.8333 7.5,55.5 Z"/></g>
<g><path style="opacity:1" fill="#000000" d="M 95.5,87.5 C 100.833,87.5 106.167,87.5 111.5,87.5C 111.5,92.8333 111.5,98.1667 111.5,103.5C 106.167,103.5 100.833,103.5 95.5,103.5C 95.5,98.1667 95.5,92.8333 95.5,87.5 Z"/></g>
<g><path style="opacity:1" fill="#000000" d="M 127.5,87.5 C 148.833,87.5 170.167,87.5 191.5,87.5C 191.5,92.8333 191.5,98.1667 191.5,103.5C 170.167,103.5 148.833,103.5 127.5,103.5C 127.5,98.1667 127.5,92.8333 127.5,87.5 Z"/></g>
<g><path style="opacity:1" fill="#efcfb3" d="M 298.5,87.5 C 318.833,87.5 339.167,87.5 359.5,87.5C 359.091,98.8965 359.591,110.23 361,121.5C 365.582,130.333 370.415,139 375.5,147.5C 375.471,149.029 374.804,150.196 373.5,151C 366.174,151.5 358.841,151.666 351.5,151.5C 351.666,160.839 351.5,170.173 351,179.5C 349.167,185.333 345.333,189.167 339.5,191C 327.505,191.5 315.505,191.667 303.5,191.5C 303.5,196.833 303.5,202.167 303.5,207.5C 308.833,207.5 314.167,207.5 319.5,207.5C 319.831,214.863 319.497,222.197 318.5,229.5C 309.176,222.167 299.176,215.834 288.5,210.5C 287.667,194.844 287.167,179.177 287,163.5C 282.667,159.167 278.333,154.833 274,150.5C 269.614,142.083 271.114,134.916 278.5,129C 281.412,127.627 284.246,126.127 287,124.5C 287.333,115.833 287.667,107.167 288,98.5C 290.02,93.3151 293.52,89.6485 298.5,87.5 Z"/></g>
<g><path style="opacity:1" fill="#000000" d="M 7.5,119.5 C 68.8333,119.5 130.167,119.5 191.5,119.5C 191.5,124.833 191.5,130.167 191.5,135.5C 130.167,135.5 68.8333,135.5 7.5,135.5C 7.5,130.167 7.5,124.833 7.5,119.5 Z"/></g>
<g><path style="opacity:1" fill="#eacbb0" d="M 466.5,127.5 C 484.272,127.805 491.105,136.805 487,154.5C 486.164,159.513 485.331,164.513 484.5,169.5C 474.417,166.792 465.084,162.459 456.5,156.5C 452.409,143.948 455.742,134.281 466.5,127.5 Z"/></g>
<g><path style="opacity:1" fill="#000000" d="M 55.5,151.5 C 82.1667,151.5 108.833,151.5 135.5,151.5C 135.5,156.833 135.5,162.167 135.5,167.5C 108.833,167.5 82.1667,167.5 55.5,167.5C 55.5,162.167 55.5,156.833 55.5,151.5 Z"/></g>
<g><path style="opacity:1" fill="#f9d46e" d="M 450.5,172.5 C 459.831,177.105 469.165,181.605 478.5,186C 470.043,205.464 458.043,222.464 442.5,237C 430.711,247.391 418.377,257.057 405.5,266C 390.733,275.25 374.9,281.083 358,283.5C 353.369,273.087 348.202,263.087 342.5,253.5C 393.125,245.868 429.125,218.868 450.5,172.5 Z"/></g>
<g><path style="opacity:1" fill="#000000" d="M 23.5,183.5 C 50.1667,183.5 76.8333,183.5 103.5,183.5C 103.5,188.833 103.5,194.167 103.5,199.5C 76.8333,199.5 50.1667,199.5 23.5,199.5C 23.5,194.167 23.5,188.833 23.5,183.5 Z"/></g>
<g><path style="opacity:1" fill="#000000" d="M 135.5,183.5 C 156.833,183.5 178.167,183.5 199.5,183.5C 199.5,188.833 199.5,194.167 199.5,199.5C 178.167,199.5 156.833,199.5 135.5,199.5C 135.5,194.167 135.5,188.833 135.5,183.5 Z"/></g>
<g><path style="opacity:1" fill="#f8c127" d="M 254.5,223.5 C 258.884,223.174 263.217,223.508 267.5,224.5C 274.96,237.252 282.293,250.085 289.5,263C 284.798,263.828 280.131,263.662 275.5,262.5C 268.221,249.605 261.221,236.605 254.5,223.5 Z"/></g>
<g><path style="opacity:1" fill="#f9d46e" d="M 228.5,225.5 C 231.572,225.183 234.572,225.516 237.5,226.5C 247.167,243.833 256.833,261.167 266.5,278.5C 273.811,279.331 281.144,279.831 288.5,280C 284.543,285.413 280.71,290.913 277,296.5C 276.251,297.635 276.417,298.635 277.5,299.5C 301.833,311.667 326.167,323.833 350.5,336C 351.602,338.401 351.769,340.901 351,343.5C 309.598,316.386 264.432,306.719 215.5,314.5C 215.586,312.323 216.253,310.323 217.5,308.5C 217.291,307.914 216.957,307.414 216.5,307C 205.017,302.091 193.684,296.924 182.5,291.5C 189.124,286.515 196.124,282.015 203.5,278C 201.027,273.544 198.194,269.377 195,265.5C 162.569,281.43 138.736,305.764 123.5,338.5C 114.407,333.62 105.073,329.286 95.5,325.5C 111.758,291.409 136.424,265.242 169.5,247C 188.234,236.926 207.9,229.759 228.5,225.5 Z"/></g>
<g><path style="opacity:1" fill="#e76f80" d="M 288.5,228.5 C 311.824,240.65 328.657,258.65 339,282.5C 329.162,276.58 319.162,270.914 309,265.5C 302.142,253.112 295.309,240.779 288.5,228.5 Z"/></g>
<g><path style="opacity:1" fill="#c89872" d="M 88.5,268.5 C 95.0787,270.789 101.412,273.623 107.5,277C 103.212,282.41 99.0452,287.91 95,293.5C 90.4908,285.801 88.3242,277.468 88.5,268.5 Z"/></g>
<g><path style="opacity:1" fill="#f7c127" d="M 305.5,282.5 C 319.605,289.72 333.605,297.22 347.5,305C 349.543,309.033 350.21,313.2 349.5,317.5C 332.677,309.255 316.011,300.755 299.5,292C 301.636,288.89 303.636,285.723 305.5,282.5 Z"/></g>
<g><path style="opacity:1" fill="#ce9c69" d="M 73.5,287.5 C 77.0598,295.113 81.0598,302.613 85.5,310C 79.0722,322.45 74.7389,335.617 72.5,349.5C 64.8224,346.328 57.4891,342.661 50.5,338.5C 58.3672,321.554 66.0339,304.554 73.5,287.5 Z"/></g>
<g><path style="opacity:1" fill="#ca9a73" d="M 166.5,303.5 C 176.344,306.75 186.01,310.584 195.5,315C 196.711,316.113 196.711,317.28 195.5,318.5C 174.764,325.703 155.431,335.203 137.5,347C 144.312,330.526 153.979,316.026 166.5,303.5 Z"/></g>
<g><path style="opacity:1" fill="#c7ccd4" d="M 230.5,327.5 C 307.553,324.592 364.053,356.926 400,424.5C 409.38,444.471 414.546,465.471 415.5,487.5C 409.833,487.5 404.167,487.5 398.5,487.5C 393.972,431.175 367.305,389.008 318.5,361C 257.737,332.209 201.07,338.542 148.5,380C 116.565,408.705 99.2318,444.538 96.5,487.5C 90.8333,487.5 85.1667,487.5 79.5,487.5C 81.3076,456.244 90.8076,427.577 108,401.5C 112.135,398.445 116.635,395.945 121.5,394C 129.465,388.245 133.965,380.412 135,370.5C 162.587,346.791 194.42,332.457 230.5,327.5 Z"/></g>
<g><path style="opacity:1" fill="#ecccb1" d="M 90.5,341.5 C 100.593,344.214 109.927,348.547 118.5,354.5C 120.127,362.022 119.627,369.355 117,376.5C 107.949,385.677 98.9487,385.677 90,376.5C 86.7893,364.834 86.956,353.168 90.5,341.5 Z"/></g>
<g><path style="opacity:1" fill="#68d4f2" d="M 226.5,360.5 C 230.833,360.5 235.167,360.5 239.5,360.5C 239.5,365.5 239.5,370.5 239.5,375.5C 244.833,375.5 250.167,375.5 255.5,375.5C 255.5,370.5 255.5,365.5 255.5,360.5C 267.791,360.908 279.791,362.908 291.5,366.5C 290.238,371.283 288.572,375.95 286.5,380.5C 290.707,383.58 295.373,385.914 300.5,387.5C 302.468,382.559 304.801,377.892 307.5,373.5C 318.46,378.966 328.46,385.799 337.5,394C 333.833,397.667 330.167,401.333 326.5,405C 330.333,408.833 334.167,412.667 338,416.5C 341.667,412.833 345.333,409.167 349,405.5C 357.201,414.54 364.034,424.54 369.5,435.5C 365.242,438.474 360.575,440.474 355.5,441.5C 357.076,446.488 359.076,451.321 361.5,456C 366.026,454.936 370.526,453.436 375,451.5C 380.597,462.719 383.097,474.719 382.5,487.5C 355.833,487.5 329.167,487.5 302.5,487.5C 301.497,477.827 297.997,469.16 292,461.5C 287.114,456.277 281.947,451.444 276.5,447C 282.402,432.46 288.402,417.96 294.5,403.5C 290.118,400.803 285.451,398.47 280.5,396.5C 274.005,411.491 267.505,426.491 261,441.5C 228.837,436.081 206.504,448.414 194,478.5C 193.304,481.478 192.804,484.478 192.5,487.5C 165.833,487.5 139.167,487.5 112.5,487.5C 112.231,475.445 114.231,463.779 118.5,452.5C 119,452.167 119.5,451.833 120,451.5C 124.207,453.069 128.373,454.735 132.5,456.5C 135.328,452.178 137.661,447.511 139.5,442.5C 134.559,440.532 129.892,438.199 125.5,435.5C 130.966,424.54 137.799,414.54 146,405.5C 149.167,408.667 152.333,411.833 155.5,415C 156.5,415.667 157.5,415.667 158.5,415C 161.833,411.667 165.167,408.333 168.5,405C 164.833,401.333 161.167,397.667 157.5,394C 166.54,385.799 176.54,378.966 187.5,373.5C 190.199,377.892 192.532,382.559 194.5,387.5C 199.511,385.661 204.178,383.328 208.5,380.5C 206.735,376.373 205.069,372.207 203.5,368C 203.833,367.5 204.167,367 204.5,366.5C 211.853,364.164 219.187,362.164 226.5,360.5 Z"/></g>
<g><path style="opacity:1" fill="#f9d46e" d="M 239.5,455.5 C 263.945,453.654 279.612,464.321 286.5,487.5C 260.5,487.5 234.5,487.5 208.5,487.5C 212.753,470.914 223.086,460.248 239.5,455.5 Z"/></g>
</svg>
