<?xml version="1.0" encoding="UTF-8"?>
<!DOCTYPE svg PUBLIC "-//W3C//DTD SVG 1.1//EN" "http://www.w3.org/Graphics/SVG/1.1/DTD/svg11.dtd">
<svg xmlns="http://www.w3.org/2000/svg" version="1.1" width="512px" height="512px" style="shape-rendering:geometricPrecision; text-rendering:geometricPrecision; image-rendering:optimizeQuality; fill-rule:evenodd; clip-rule:evenodd" xmlns:xlink="http://www.w3.org/1999/xlink">
<g><path style="opacity:0.944" fill="#010101" d="M 490.5,471.5 C 486.794,464.889 483.961,457.889 482,450.5C 479.457,428.135 476.791,405.802 474,383.5C 465.929,406.476 455.095,427.976 441.5,448C 439.833,448.667 438.167,448.667 436.5,448C 431.968,443.133 427.134,438.633 422,434.5C 417.488,442.19 413.488,450.19 410,458.5C 404.922,461.873 401.588,460.539 400,454.5C 394.806,433.39 389.139,412.39 383,391.5C 377.304,417.925 367.304,442.592 353,465.5C 349.167,470.692 344.501,471.692 339,468.5C 336.065,460.528 333.232,452.528 330.5,444.5C 327.219,452.605 322.553,459.772 316.5,466C 313.975,466.896 311.808,466.396 310,464.5C 309.243,435.968 305.243,407.968 298,380.5C 290.223,406.72 280.223,432.053 268,456.5C 264.738,462.869 260.071,464.536 254,461.5C 252.34,448.519 248.674,436.186 243,424.5C 236.915,440.691 226.582,453.358 212,462.5C 210.527,462.097 209.194,461.43 208,460.5C 207.667,446.167 207.333,431.833 207,417.5C 206.597,412.133 205.93,406.799 205,401.5C 200.144,425.898 192.977,449.565 183.5,472.5C 182.566,476.373 181.066,480.039 179,483.5C 175.582,487.367 172.249,487.367 169,483.5C 167.326,479.979 166.16,476.313 165.5,472.5C 163.992,465.467 162.325,458.467 160.5,451.5C 156.673,458.154 153.673,465.154 151.5,472.5C 151.414,481.45 147.581,483.784 140,479.5C 138.864,477.257 138.03,474.924 137.5,472.5C 132.399,448.497 127.233,424.497 122,400.5C 118.8,425.633 112.634,449.966 103.5,473.5C 97.7945,486.784 92.1278,486.784 86.5,473.5C 83.3113,462.432 79.8113,451.432 76,440.5C 72.3304,451.674 68.1637,462.674 63.5,473.5C 59.5,480.167 55.5,480.167 51.5,473.5C 52.0967,473.265 52.4301,472.765 52.5,472C 48.9173,456.171 45.4173,440.337 42,424.5C 37.1906,439.118 30.524,452.785 22,465.5C 20.2962,467.373 18.4628,469.04 16.5,470.5C 11.1755,469.67 9.34221,466.67 11,461.5C 26.9005,439.475 35.9005,414.809 38,387.5C 38.7579,385.09 40.4246,384.09 43,384.5C 45.0342,384.354 46.7009,385.02 48,386.5C 50.323,409.105 54.1564,431.439 59.5,453.5C 64.782,439.937 68.6153,425.937 71,411.5C 74.696,408.575 78.0293,408.908 81,412.5C 83.9533,429.981 88.62,446.981 95,463.5C 107.612,433.104 113.279,401.437 112,368.5C 114.467,364.006 117.8,363.34 122,366.5C 125.06,373.68 127.727,381.014 130,388.5C 135.234,411.174 140.401,433.84 145.5,456.5C 149.932,446.466 155.266,436.966 161.5,428C 164.68,426.964 167.18,427.797 169,430.5C 169.925,442.049 171.925,453.382 175,464.5C 188.013,433.112 195.68,400.445 198,366.5C 199.691,362.787 202.525,361.621 206.5,363C 207.701,363.903 208.535,365.069 209,366.5C 215.18,391.788 218.514,417.455 219,443.5C 221,440.833 223,438.167 225,435.5C 225.5,378.834 225.667,322.168 225.5,265.5C 172.165,266.274 118.832,266.774 65.5,267C 60.5037,265.014 56.337,261.847 53,257.5C 40.045,240.876 26.7117,224.543 13,208.5C 8.6699,204.403 8.50323,200.237 12.5,196C 35.438,181.393 58.1046,166.393 80.5,151C 128.819,149.382 177.152,148.548 225.5,148.5C 225.752,109.79 224.919,71.1234 223,32.5C 229.038,28.0407 235.871,25.5407 243.5,25C 251.732,24.2237 259.732,25.2237 267.5,28C 269.087,39.7264 269.753,51.5597 269.5,63.5C 321.852,63.2613 374.185,64.0946 426.5,66C 449.5,81.1667 472.5,96.3333 495.5,111.5C 498.21,115.262 498.043,118.929 495,122.5C 480,140.833 465,159.167 450,177.5C 447.749,179.377 445.249,180.877 442.5,182C 385.836,181.686 329.169,181.186 272.5,180.5C 273.74,255.848 275.574,331.181 278,406.5C 285.846,386.452 291.512,365.786 295,344.5C 298.381,340.515 301.714,340.515 305,344.5C 305.88,353.515 306.88,362.515 308,371.5C 312.433,394.768 316.433,418.101 320,441.5C 322.413,433.687 323.747,425.687 324,417.5C 326.448,414.455 329.281,413.955 332.5,416C 337.526,429.245 342.026,442.745 346,456.5C 364.527,425.4 374.527,391.733 376,355.5C 376.445,350.062 379.279,348.229 384.5,350C 390.932,379.558 398.432,409.058 407,438.5C 409.923,432.985 412.59,427.318 415,421.5C 417.968,419.009 421.135,418.843 424.5,421C 429,425.5 433.5,430 438,434.5C 450.956,410.759 462.123,386.259 471.5,361C 475.475,359.621 478.309,360.787 480,364.5C 482.277,370.332 483.944,376.332 485,382.5C 487.13,403.527 489.463,424.527 492,445.5C 492.844,449.211 493.844,452.877 495,456.5C 497.612,461.216 499.778,466.05 501.5,471C 500.552,476.142 497.552,477.642 492.5,475.5C 491.295,474.423 490.628,473.09 490.5,471.5 Z M 477.5,125.5 C 463.386,116.603 449.386,107.436 435.5,98C 381.19,95.4619 326.856,94.9619 272.5,96.5C 271.92,99.3106 271.254,101.977 270.5,104.5C 269.945,94.5091 269.612,84.5091 269.5,74.5C 320.511,74.6818 371.511,75.5151 422.5,77C 442.833,90.6667 463.167,104.333 483.5,118C 481.666,120.663 479.666,123.163 477.5,125.5 Z M 226.5,171.5 C 182.826,171.945 139.159,172.779 95.5,174C 74.977,188.091 54.3103,201.925 33.5,215.5C 30.3802,211.208 27.0469,207.041 23.5,203C 43.8333,189.333 64.1667,175.667 84.5,162C 131.825,160.696 179.158,159.863 226.5,159.5C 226.5,163.5 226.5,167.5 226.5,171.5 Z"/></g>
<g><path style="opacity:1" fill="#fbfbfa" d="M 249.5,35.5 C 248.739,36.3909 247.739,37.0576 246.5,37.5C 246.167,39.3333 245.833,41.1667 245.5,43C 246.599,56.1495 247.432,69.3162 248,82.5C 248.5,191.166 248.667,299.833 248.5,408.5C 247.407,402.909 244.073,400.742 238.5,402C 237.944,402.383 237.611,402.883 237.5,403.5C 236.502,379.006 236.169,354.339 236.5,329.5C 236.667,253.499 236.5,177.499 236,101.5C 235.733,81.1299 234.9,60.7965 233.5,40.5C 233.781,38.2216 235.115,37.0549 237.5,37C 241.418,35.8436 245.418,35.3436 249.5,35.5 Z"/></g>
<g><path style="opacity:1" fill="#f3c74b" d="M 249.5,35.5 C 252.545,35.5079 255.545,35.8413 258.5,36.5C 261.747,169.499 264.58,302.499 267,435.5C 265.059,439.048 263.393,442.714 262,446.5C 258.008,433.692 253.508,421.025 248.5,408.5C 248.667,299.833 248.5,191.166 248,82.5C 247.432,69.3162 246.599,56.1495 245.5,43C 245.833,41.1667 246.167,39.3333 246.5,37.5C 247.739,37.0576 248.739,36.3909 249.5,35.5 Z"/></g>
<g><path style="opacity:0.995" fill="#fa93fa" d="M 477.5,125.5 C 471.009,133.803 464.509,142.137 458,150.5C 458.957,146.907 459.623,143.24 460,139.5C 457.294,136.022 454.294,135.689 451,138.5C 448.951,144.93 446.117,150.93 442.5,156.5C 443.367,159.533 445.367,161.366 448.5,162C 446.205,165.297 443.538,168.297 440.5,171C 426.171,171.5 411.837,171.667 397.5,171.5C 397.833,170.833 398.167,170.167 398.5,169.5C 400.17,169.249 401.67,168.582 403,167.5C 407.755,160.324 412.755,153.324 418,146.5C 420.418,142.003 419.085,139.337 414,138.5C 411.497,138.99 409.497,140.323 408,142.5C 403.698,149.794 398.364,156.127 392,161.5C 390.834,164.927 391.668,167.593 394.5,169.5C 390.366,170.485 386.032,170.818 381.5,170.5C 385.644,164.549 390.477,159.216 396,154.5C 396.244,146.742 393.078,144.909 386.5,149C 380.143,156.356 373.476,163.356 366.5,170C 364.5,170.667 362.5,170.667 360.5,170C 365.944,164.956 368.444,158.79 368,151.5C 364.706,148.689 361.706,149.022 359,152.5C 357.777,156.615 355.777,160.282 353,163.5C 349.952,165.096 347.452,167.263 345.5,170C 338.5,170.667 331.5,170.667 324.5,170C 328.369,166.466 331.869,162.633 335,158.5C 335.993,152.498 333.493,150.332 327.5,152C 323.788,157.379 319.121,161.713 313.5,165C 311.963,166.11 311.297,167.61 311.5,169.5C 309.265,169.795 307.265,169.461 305.5,168.5C 309.996,165.204 312.496,160.87 313,155.5C 311.136,152.793 308.636,151.959 305.5,153C 300.588,159.581 294.755,165.081 288,169.5C 287.167,169.333 286.333,169.167 285.5,169C 288.23,165.039 290.563,160.872 292.5,156.5C 290.674,151.301 287.507,150.301 283,153.5C 280.916,157.336 278.583,161.003 276,164.5C 274.991,166.025 274.491,167.692 274.5,169.5C 273.167,169.5 271.833,169.5 270.5,169.5C 270.5,147.833 270.5,126.167 270.5,104.5C 271.254,101.977 271.92,99.3106 272.5,96.5C 326.856,94.9619 381.19,95.4619 435.5,98C 449.386,107.436 463.386,116.603 477.5,125.5 Z"/></g>
<g><path style="opacity:1" fill="#0a050a" d="M 432.5,134.5 C 439.241,134.39 441.408,137.39 439,143.5C 433.449,152.77 427.282,161.604 420.5,170C 413.718,171.875 410.552,169.375 411,162.5C 412.532,160.438 414.532,159.104 417,158.5C 422.39,150.617 427.557,142.617 432.5,134.5 Z"/></g>
<g><path style="opacity:1" fill="#090509" d="M 398.5,169.5 C 397.167,169.5 395.833,169.5 394.5,169.5C 391.668,167.593 390.834,164.927 392,161.5C 398.364,156.127 403.698,149.794 408,142.5C 409.497,140.323 411.497,138.99 414,138.5C 419.085,139.337 420.418,142.003 418,146.5C 412.755,153.324 407.755,160.324 403,167.5C 401.67,168.582 400.17,169.249 398.5,169.5 Z"/></g>
<g><path style="opacity:1" fill="#8d538d" d="M 305.5,168.5 C 307.265,169.461 309.265,169.795 311.5,169.5C 309.307,170.797 306.973,170.797 304.5,169.5C 304.624,168.893 304.957,168.56 305.5,168.5 Z"/></g>
<g><path style="opacity:1" fill="#834d83" d="M 394.5,169.5 C 395.833,169.5 397.167,169.5 398.5,169.5C 398.167,170.167 397.833,170.833 397.5,171.5C 391.974,171.821 386.64,171.488 381.5,170.5C 386.032,170.818 390.366,170.485 394.5,169.5 Z"/></g>
<g><path style="opacity:0.995" fill="#113ad7" d="M 226.5,171.5 C 226.5,199.167 226.5,226.833 226.5,254.5C 219.159,254.666 211.826,254.5 204.5,254C 207.65,248.558 209.15,242.725 209,236.5C 202.552,231.474 199.219,233.141 199,241.5C 198.057,244.4 196.39,246.733 194,248.5C 193.666,250.847 193.833,253.181 194.5,255.5C 183.495,255.667 172.495,255.5 161.5,255C 168.44,247.728 170.94,239.228 169,229.5C 166.084,227.987 163.418,228.32 161,230.5C 160.768,237.363 158.434,243.363 154,248.5C 153.242,250.769 153.409,252.936 154.5,255C 150.167,255.667 145.833,255.667 141.5,255C 146.357,249.953 149.357,243.953 150.5,237C 150.262,233.929 148.596,232.429 145.5,232.5C 143.626,232.39 142.126,233.056 141,234.5C 140.073,241.023 137.073,246.356 132,250.5C 131.506,252.134 131.34,253.801 131.5,255.5C 128.482,255.665 125.482,255.498 122.5,255C 127.12,250.012 126.454,246.179 120.5,243.5C 116.438,244.573 113.938,247.24 113,251.5C 112.506,253.134 112.34,254.801 112.5,256.5C 110.396,256.799 108.396,256.466 106.5,255.5C 110.07,249.962 111.903,243.962 112,237.5C 109,233.5 106,233.5 103,237.5C 101.022,244.109 98.5223,250.443 95.5,256.5C 92.4281,256.817 89.4281,256.484 86.5,255.5C 89.2102,250.249 91.2102,244.749 92.5,239C 92.2622,235.929 90.5956,234.429 87.5,234.5C 86.2284,234.57 85.0617,234.903 84,235.5C 81.9409,239.677 80.2742,244.01 79,248.5C 76.7997,249.651 75.2997,251.318 74.5,253.5C 73.596,254.209 73.2627,255.209 73.5,256.5C 71.8333,256.5 70.1667,256.5 68.5,256.5C 66.2843,255.797 64.451,254.464 63,252.5C 53.1582,240.136 43.3249,227.803 33.5,215.5C 54.3103,201.925 74.977,188.091 95.5,174C 139.159,172.779 182.826,171.945 226.5,171.5 Z"/></g>
<g><path style="opacity:1" fill="#03020a" d="M 184.5,223.5 C 191.03,223.243 193.197,226.243 191,232.5C 188.91,239.18 185.41,245.013 180.5,250C 175.178,250.34 173.011,247.84 174,242.5C 175.574,241.016 176.907,239.349 178,237.5C 179.89,232.642 182.057,227.975 184.5,223.5 Z"/></g>
<g><path style="opacity:1" fill="#061651" d="M 74.5,253.5 C 74.5,254.833 74.5,256.167 74.5,257.5C 72.2646,257.795 70.2646,257.461 68.5,256.5C 70.1667,256.5 71.8333,256.5 73.5,256.5C 73.2627,255.209 73.596,254.209 74.5,253.5 Z"/></g>
<g><path style="opacity:0.991" fill="#00ae67" d="M 490.5,471.5 C 388.167,472.017 285.834,472.35 183.5,472.5C 192.977,449.565 200.144,425.898 205,401.5C 205.93,406.799 206.597,412.133 207,417.5C 207.333,431.833 207.667,446.167 208,460.5C 209.194,461.43 210.527,462.097 212,462.5C 226.582,453.358 236.915,440.691 243,424.5C 248.674,436.186 252.34,448.519 254,461.5C 260.071,464.536 264.738,462.869 268,456.5C 280.223,432.053 290.223,406.72 298,380.5C 305.243,407.968 309.243,435.968 310,464.5C 311.808,466.396 313.975,466.896 316.5,466C 322.553,459.772 327.219,452.605 330.5,444.5C 333.232,452.528 336.065,460.528 339,468.5C 344.501,471.692 349.167,470.692 353,465.5C 367.304,442.592 377.304,417.925 383,391.5C 389.139,412.39 394.806,433.39 400,454.5C 401.588,460.539 404.922,461.873 410,458.5C 413.488,450.19 417.488,442.19 422,434.5C 427.134,438.633 431.968,443.133 436.5,448C 438.167,448.667 439.833,448.667 441.5,448C 455.095,427.976 465.929,406.476 474,383.5C 476.791,405.802 479.457,428.135 482,450.5C 483.961,457.889 486.794,464.889 490.5,471.5 Z"/></g>
<g><path style="opacity:1" fill="#282828" d="M 236.5,329.5 C 236.169,354.339 236.502,379.006 237.5,403.5C 237.631,404.376 237.298,405.043 236.5,405.5C 235.171,380.003 235.171,354.67 236.5,329.5 Z"/></g>
<g><path style="opacity:0.996" fill="#00ad66" d="M 137.5,472.5 C 126.14,472.283 114.807,472.616 103.5,473.5C 112.634,449.966 118.8,425.633 122,400.5C 127.233,424.497 132.399,448.497 137.5,472.5 Z"/></g>
<g><path style="opacity:0.966" fill="#00ad66" d="M 51.5,473.5 C 39.4815,473.832 27.4815,473.499 15.5,472.5C 15.8627,471.817 16.1961,471.15 16.5,470.5C 18.4628,469.04 20.2962,467.373 22,465.5C 30.524,452.785 37.1906,439.118 42,424.5C 45.4173,440.337 48.9173,456.171 52.5,472C 52.4301,472.765 52.0967,473.265 51.5,473.5 Z"/></g>
<g><path style="opacity:0.943" fill="#00ab64" d="M 86.5,473.5 C 78.8333,473.5 71.1667,473.5 63.5,473.5C 68.1637,462.674 72.3304,451.674 76,440.5C 79.8113,451.432 83.3113,462.432 86.5,473.5 Z"/></g>
<g><path style="opacity:0.985" fill="#00a662" d="M 165.5,472.5 C 160.833,472.5 156.167,472.5 151.5,472.5C 153.673,465.154 156.673,458.154 160.5,451.5C 162.325,458.467 163.992,465.467 165.5,472.5 Z"/></g>
</svg>
