<?xml version="1.0" encoding="UTF-8"?>
<!DOCTYPE svg PUBLIC "-//W3C//DTD SVG 1.1//EN" "http://www.w3.org/Graphics/SVG/1.1/DTD/svg11.dtd">
<svg xmlns="http://www.w3.org/2000/svg" version="1.1" width="512px" height="512px" style="shape-rendering:geometricPrecision; text-rendering:geometricPrecision; image-rendering:optimizeQuality; fill-rule:evenodd; clip-rule:evenodd" xmlns:xlink="http://www.w3.org/1999/xlink">
<g><path style="opacity:0.972" fill="#030404" d="M 511.5,84.5 C 511.5,114.167 511.5,143.833 511.5,173.5C 510.334,206.115 507.834,238.782 504,271.5C 501.28,291.773 496.28,311.439 489,330.5C 479.929,348.223 465.429,358.056 445.5,360C 425.241,360.847 405.074,360.347 385,358.5C 384.965,392.34 382.632,426.007 378,459.5C 376.435,470.725 370.268,477.892 359.5,481C 334.174,483.395 309.174,481.395 284.5,475C 275.458,471.96 269.958,465.793 268,456.5C 266.878,451.898 266.378,447.232 266.5,442.5C 254.5,442.5 242.5,442.5 230.5,442.5C 230.147,455.102 227.314,467.102 222,478.5C 218.521,484.651 213.354,488.484 206.5,490C 188.523,491.231 170.523,492.064 152.5,492.5C 116.146,491.488 79.8122,489.988 43.5,488C 32.3543,488.365 21.6876,486.365 11.5,482C 6.30568,478.476 3.13901,473.643 2,467.5C 0.264455,455.198 0.0977883,442.865 1.5,430.5C 0.986828,412.667 0.320161,395 -0.5,377.5C -0.5,362.5 -0.5,347.5 -0.5,332.5C 0.833333,322.5 0.833333,312.5 -0.5,302.5C -0.5,284.167 -0.5,265.833 -0.5,247.5C 0.710804,235.324 1.87747,222.991 3,210.5C 3.16203,201.325 5.99536,193.158 11.5,186C 15.3896,183.053 19.7229,181.22 24.5,180.5C 23.4006,137.551 26.2339,94.8839 33,52.5C 38.9577,35.8882 50.7911,26.7215 68.5,25C 160.752,18.8807 253.085,17.3807 345.5,20.5C 385.871,18.7286 426.205,19.2286 466.5,22C 480.345,22.8468 492.511,27.6802 503,36.5C 505.434,39.7954 507.101,43.462 508,47.5C 509.363,59.9639 510.53,72.2972 511.5,84.5 Z"/></g>
<g><path style="opacity:1" fill="#f0f0f0" d="M 197.5,28.5 C 279.836,28.5903 362.169,29.0903 444.5,30C 461.574,29.952 477.574,33.952 492.5,42C 494.956,44.4075 496.789,47.2409 498,50.5C 499.466,73.4882 500.633,96.4882 501.5,119.5C 501.099,171.301 498.265,222.968 493,274.5C 492.651,280.042 490.151,284.209 485.5,287C 477.83,287.321 470.163,287.154 462.5,286.5C 464.218,274.861 465.718,263.194 467,251.5C 468.701,190.169 468.701,128.836 467,67.5C 466.331,61.3189 463.497,56.4856 458.5,53C 443.4,51.3664 428.233,50.5331 413,50.5C 304.477,52.076 195.977,54.576 87.5,58C 73.325,58.1975 64.4916,65.0308 61,78.5C 59.7565,111.822 58.5898,145.155 57.5,178.5C 49.8333,178.5 42.1667,178.5 34.5,178.5C 33.5128,143.055 35.0128,107.721 39,72.5C 39.5174,61.2658 43.3508,51.4325 50.5,43C 59.3076,37.379 68.9743,34.379 79.5,34C 118.98,31.8897 158.313,30.0564 197.5,28.5 Z"/></g>
<g><path style="opacity:1" fill="#008ce2" d="M 460.5,80.5 C 460.5,86.5 460.5,92.5 460.5,98.5C 448.833,98.5 437.167,98.5 425.5,98.5C 398.513,97.413 371.513,96.7464 344.5,96.5C 251.822,98.5135 159.155,99.5135 66.5,99.5C 65.95,91.3318 66.7833,83.3318 69,75.5C 70.9018,70.5995 74.4018,67.4329 79.5,66C 116.468,63.6198 153.468,61.9531 190.5,61C 274.5,59.3775 358.5,58.0442 442.5,57C 447.684,57.4995 452.517,58.9995 457,61.5C 460.083,67.398 461.249,73.7313 460.5,80.5 Z"/></g>
<g><path style="opacity:1" fill="#003b60" d="M 460.5,80.5 C 461.49,86.6446 461.823,92.9779 461.5,99.5C 449.322,99.8284 437.322,99.4951 425.5,98.5C 437.167,98.5 448.833,98.5 460.5,98.5C 460.5,92.5 460.5,86.5 460.5,80.5 Z"/></g>
<g><path style="opacity:1" fill="#13d9f3" d="M 455.5,280.5 C 454.549,281.919 454.216,283.585 454.5,285.5C 446.648,285.175 438.982,285.508 431.5,286.5C 413.659,286.415 395.826,286.748 378,287.5C 329.866,285.095 281.699,283.928 233.5,284C 231.556,276.778 230.889,269.278 231.5,261.5C 235.342,261.761 239.009,261.094 242.5,259.5C 243.731,258.349 243.731,257.183 242.5,256C 240.866,255.506 239.199,255.34 237.5,255.5C 236.081,254.549 234.415,254.216 232.5,254.5C 232.5,252.5 232.5,250.5 232.5,248.5C 233.791,248.737 234.791,248.404 235.5,247.5C 237.937,247.244 240.271,246.577 242.5,245.5C 243.386,244.675 243.719,243.675 243.5,242.5C 239.846,242.058 236.179,241.724 232.5,241.5C 232.5,238.167 232.5,234.833 232.5,231.5C 236.704,231.705 240.371,230.538 243.5,228C 243.355,227.228 243.022,226.561 242.5,226C 239.183,225.502 235.85,225.335 232.5,225.5C 232.5,222.167 232.5,218.833 232.5,215.5C 236.704,215.705 240.371,214.538 243.5,212C 243.355,211.228 243.022,210.561 242.5,210C 240.19,209.503 237.857,209.337 235.5,209.5C 234.791,208.596 233.791,208.263 232.5,208.5C 232.768,206.901 232.434,205.568 231.5,204.5C 231.07,192.237 225.07,184.071 213.5,180C 206.547,178.837 199.547,178.337 192.5,178.5C 179.966,178.16 167.633,177.16 155.5,175.5C 156.278,162.839 156.444,150.173 156,137.5C 156.431,124.949 150.598,117.449 138.5,115C 126.853,113.779 115.186,113.445 103.5,114C 100.667,115.5 98.5,117.667 97,120.5C 96.5001,138.497 96.3334,156.497 96.5,174.5C 96.5,175.5 96.5,176.5 96.5,177.5C 91.6367,177.181 86.97,177.514 82.5,178.5C 76.8333,178.5 71.1667,178.5 65.5,178.5C 65.4868,153.827 65.8201,129.161 66.5,104.5C 75.2596,105.928 84.093,106.595 93,106.5C 174.518,105.98 256.018,104.647 337.5,102.5C 378.472,104.653 419.472,105.653 460.5,105.5C 461.695,151.501 461.528,197.501 460,243.5C 459.668,255.987 458.168,268.32 455.5,280.5 Z"/></g>
<g><path style="opacity:1" fill="#040b0d" d="M 287.5,113.5 C 300.237,113.27 312.904,114.104 325.5,116C 329.493,116.998 332.659,119.165 335,122.5C 338.901,132.792 340.401,143.459 339.5,154.5C 339.85,163.305 339.016,171.971 337,180.5C 333.676,184.916 329.176,187.416 323.5,188C 311.476,189.857 299.476,189.857 287.5,188C 282.636,185.747 280.136,181.913 280,176.5C 279.333,158.167 279.333,139.833 280,121.5C 281.353,117.65 283.853,114.983 287.5,113.5 Z"/></g>
<g><path style="opacity:1" fill="#060e0f" d="M 166.5,119.5 C 192.196,119.591 217.863,120.258 243.5,121.5C 243.67,122.822 243.337,123.989 242.5,125C 238.201,126.887 233.701,127.721 229,127.5C 209.856,126.036 190.69,124.87 171.5,124C 168.099,124.266 166.433,122.766 166.5,119.5 Z"/></g>
<g><path style="opacity:1" fill="#008be0" d="M 111.5,119.5 C 120.238,119.673 128.905,120.506 137.5,122C 143.543,124.568 147.376,129.068 149,135.5C 150.332,147.476 150.666,159.476 150,171.5C 149.069,173.459 148.236,175.459 147.5,177.5C 132.578,178.841 117.744,178.508 103,176.5C 101.43,160.54 101.096,144.54 102,128.5C 103.75,123.915 106.916,120.915 111.5,119.5 Z"/></g>
<g><path style="opacity:1" fill="#008be1" d="M 294.5,119.5 C 304.334,119.439 314,120.606 323.5,123C 327.926,125.998 330.759,130.165 332,135.5C 333.133,147.485 333.466,159.485 333,171.5C 331.29,178.459 326.79,182.293 319.5,183C 310.833,183.667 302.167,183.667 293.5,183C 288.086,180.694 285.253,176.527 285,170.5C 284.333,156.5 284.333,142.5 285,128.5C 286.775,123.888 289.942,120.888 294.5,119.5 Z"/></g>
<g><path style="opacity:1" fill="#040c0e" d="M 166.5,139.5 C 189.822,140.235 213.155,140.735 236.5,141C 238.5,141.333 240.5,141.667 242.5,142C 243.925,143.714 243.592,145.047 241.5,146C 236.889,146.979 232.223,147.479 227.5,147.5C 207.493,146.37 187.493,145.204 167.5,144C 166.62,142.644 166.286,141.144 166.5,139.5 Z"/></g>
<g><path style="opacity:1" fill="#020708" d="M 349.5,139.5 C 375.168,140.156 400.835,140.822 426.5,141.5C 426.773,143.451 426.107,144.951 424.5,146C 420.223,146.955 415.889,147.455 411.5,147.5C 391.514,146.112 371.514,144.945 351.5,144C 349.963,142.89 349.297,141.39 349.5,139.5 Z"/></g>
<g><path style="opacity:1" fill="#040c0d" d="M 166.5,155.5 C 191.852,155.989 217.186,156.823 242.5,158C 243.022,158.561 243.355,159.228 243.5,160C 242.318,161.735 240.651,162.735 238.5,163C 214.813,162.808 191.146,161.808 167.5,160C 166.62,158.644 166.286,157.144 166.5,155.5 Z"/></g>
<g><path style="opacity:1" fill="#040c0d" d="M 349.5,155.5 C 374.852,155.989 400.186,156.823 425.5,158C 426.022,158.561 426.355,159.228 426.5,160C 425.318,161.735 423.651,162.735 421.5,163C 398.143,162.856 374.81,161.856 351.5,160C 349.963,158.89 349.297,157.39 349.5,155.5 Z"/></g>
<g><path style="opacity:1" fill="#050d0e" d="M 350.5,171.5 C 373.15,172.269 395.817,172.769 418.5,173C 420.5,173.333 422.5,173.667 424.5,174C 425.428,174.388 426.095,175.055 426.5,176C 425.008,177.885 423.008,178.885 420.5,179C 399.835,178.689 379.168,178.023 358.5,177C 355.774,176.818 353.107,176.318 350.5,175.5C 349.193,174.135 349.193,172.802 350.5,171.5 Z"/></g>
<g><path style="opacity:1" fill="#0c8b9c" d="M 96.5,174.5 C 97.4345,175.568 97.7678,176.901 97.5,178.5C 92.5,178.5 87.5,178.5 82.5,178.5C 86.97,177.514 91.6367,177.181 96.5,177.5C 96.5,176.5 96.5,175.5 96.5,174.5 Z"/></g>
<g><path style="opacity:1" fill="#064851" d="M 155.5,175.5 C 167.633,177.16 179.966,178.16 192.5,178.5C 179.833,178.5 167.167,178.5 154.5,178.5C 154.263,177.209 154.596,176.209 155.5,175.5 Z"/></g>
<g><path style="opacity:1" fill="#707070" d="M 90.5,186.5 C 127.163,187.127 163.83,187.627 200.5,188C 209.6,188.126 216.434,191.959 221,199.5C 220.391,276.499 220.391,353.499 221,430.5C 220.68,445.432 217.68,459.765 212,473.5C 208.746,477.361 204.579,479.528 199.5,480C 142.444,481.019 85.4439,479.686 28.5,476C 21.9072,475.457 17.0739,472.291 14,466.5C 12.7217,453.236 12.055,439.902 12,426.5C 10.694,363.838 10.3607,301.171 11,238.5C 11.8895,226.82 12.8895,215.153 14,203.5C 16.3602,195.142 21.8602,190.309 30.5,189C 42.959,187.33 55.459,187.164 68,188.5C 75.7003,188.401 83.2003,187.734 90.5,186.5 Z"/></g>
<g><path style="opacity:1" fill="#070f12" d="M 287.5,197.5 C 298.849,197.593 310.182,198.093 321.5,199C 333.598,201.449 339.431,208.949 339,221.5C 339.666,234.522 339.333,247.522 338,260.5C 337.681,263.973 336.181,266.806 333.5,269C 318.453,274.505 303.12,275.505 287.5,272C 282.632,269.775 280.132,265.942 280,260.5C 279.333,242.167 279.333,223.833 280,205.5C 281.353,201.65 283.853,198.983 287.5,197.5 Z"/></g>
<g><path style="opacity:1" fill="#050809" d="M 36.5,198.5 C 84.1577,198.726 131.824,198.893 179.5,199C 205.557,198.73 215.89,211.397 210.5,237C 207.539,293.46 205.706,349.96 205,406.5C 204.308,413.626 202.975,420.626 201,427.5C 196.872,437.998 189.038,443.165 177.5,443C 140.163,443.27 102.829,443.77 65.5,444.5C 54.3363,445.362 43.6696,443.528 33.5,439C 27.4776,433.954 24.311,427.454 24,419.5C 23.4769,407.483 23.8102,395.483 25,383.5C 25.3333,325.167 25.6667,266.833 26,208.5C 27.5062,203.009 31.0062,199.676 36.5,198.5 Z"/></g>
<g><path style="opacity:1" fill="#008ce3" d="M 291.5,204.5 C 299.84,204.334 308.173,204.5 316.5,205C 324.565,206.732 329.732,211.565 332,219.5C 333.133,231.485 333.466,243.485 333,255.5C 331.59,262.907 327.09,266.74 319.5,267C 310.833,267.667 302.167,267.667 293.5,267C 289.23,265.73 286.73,262.896 286,258.5C 285.431,243.157 285.098,227.824 285,212.5C 286.305,209.039 288.471,206.372 291.5,204.5 Z"/></g>
<g><path style="opacity:1" fill="#008ce2" d="M 202.5,220.5 C 202.5,225.5 202.5,230.5 202.5,235.5C 197.5,235.5 192.5,235.5 187.5,235.5C 138.821,235.399 90.1541,236.066 41.5,237.5C 38.5,237.5 35.5,237.5 32.5,237.5C 32.8016,234.941 32.4682,232.607 31.5,230.5C 30.0031,223.464 30.1697,216.464 32,209.5C 33.214,207.951 34.714,206.785 36.5,206C 83.1667,205.333 129.833,205.333 176.5,206C 184.233,206.013 191.566,207.679 198.5,211C 201.076,213.651 202.409,216.818 202.5,220.5 Z"/></g>
<g><path style="opacity:1" fill="#050c0d" d="M 350.5,207.5 C 373.15,208.269 395.817,208.769 418.5,209C 420.5,209.333 422.5,209.667 424.5,210C 425.428,210.388 426.095,211.055 426.5,212C 425.008,213.885 423.008,214.885 420.5,215C 417.167,215.167 413.833,215.333 410.5,215.5C 393.188,214.239 375.855,213.406 358.5,213C 355.774,212.818 353.107,212.318 350.5,211.5C 349.193,210.135 349.193,208.802 350.5,207.5 Z"/></g>
<g><path style="opacity:1" fill="#0c8393" d="M 231.5,204.5 C 232.434,205.568 232.768,206.901 232.5,208.5C 233.791,208.263 234.791,208.596 235.5,209.5C 234.167,209.5 232.833,209.5 231.5,209.5C 231.5,207.833 231.5,206.167 231.5,204.5 Z"/></g>
<g><path style="opacity:1" fill="#040b0d" d="M 350.5,223.5 C 373.147,224.28 395.814,224.78 418.5,225C 421.117,225.822 423.784,226.322 426.5,226.5C 426.64,228.124 425.973,229.29 424.5,230C 419.734,231.037 414.901,231.537 410,231.5C 390.17,230.288 370.336,229.121 350.5,228C 349.272,226.51 349.272,225.01 350.5,223.5 Z"/></g>
<g><path style="opacity:1" fill="#00446f" d="M 202.5,220.5 C 203.488,225.64 203.821,230.974 203.5,236.5C 197.974,236.821 192.64,236.488 187.5,235.5C 192.5,235.5 197.5,235.5 202.5,235.5C 202.5,230.5 202.5,225.5 202.5,220.5 Z"/></g>
<g><path style="opacity:1" fill="#042a44" d="M 31.5,230.5 C 32.4682,232.607 32.8016,234.941 32.5,237.5C 35.5,237.5 38.5,237.5 41.5,237.5C 38.3752,238.479 35.0419,238.813 31.5,238.5C 31.5,235.833 31.5,233.167 31.5,230.5 Z"/></g>
<g><path style="opacity:1" fill="#060e10" d="M 350.5,239.5 C 373.143,240.291 395.81,240.791 418.5,241C 421.117,241.822 423.784,242.322 426.5,242.5C 426.78,245.388 425.447,246.888 422.5,247C 413.833,247.667 405.167,247.667 396.5,247C 381.164,246.025 365.83,245.025 350.5,244C 349.272,242.51 349.272,241.01 350.5,239.5 Z"/></g>
<g><path style="opacity:1" fill="#13d9f2" d="M 118.5,241.5 C 146.841,241.359 175.174,241.692 203.5,242.5C 202.665,274.199 201.165,305.866 199,337.5C 198.667,362.5 198.333,387.5 198,412.5C 197.549,421.201 194.049,428.367 187.5,434C 185.212,434.822 182.878,435.489 180.5,436C 136.491,436.439 92.4914,436.772 48.5,437C 39.4506,435.617 33.9506,430.451 32,421.5C 32.6599,362.167 32.6599,302.833 32,243.5C 60.9278,243.923 89.7612,243.257 118.5,241.5 Z"/></g>
<g><path style="opacity:1" fill="#0b7d8c" d="M 235.5,247.5 C 234.791,248.404 233.791,248.737 232.5,248.5C 232.5,250.5 232.5,252.5 232.5,254.5C 234.415,254.216 236.081,254.549 237.5,255.5C 235.5,255.5 233.5,255.5 231.5,255.5C 231.5,252.833 231.5,250.167 231.5,247.5C 232.833,247.5 234.167,247.5 235.5,247.5 Z"/></g>
<g><path style="opacity:1" fill="#040b0e" d="M 52.5,249.5 C 64.5165,250.003 76.5165,250.836 88.5,252C 92.8617,253.372 96.3617,255.872 99,259.5C 102.281,268.354 103.781,277.52 103.5,287C 103.213,295.512 102.713,304.012 102,312.5C 100.747,319.417 96.5803,323.251 89.5,324C 77.2117,326.744 64.8783,327.078 52.5,325C 47.9014,323.402 45.0681,320.235 44,315.5C 43.3333,296.167 43.3333,276.833 44,257.5C 45.7302,253.57 48.5636,250.903 52.5,249.5 Z"/></g>
<g><path style="opacity:1" fill="#060f10" d="M 350.5,253.5 C 375.515,254.011 400.515,254.844 425.5,256C 426.022,256.561 426.355,257.228 426.5,258C 425.008,259.885 423.008,260.885 420.5,261C 399.82,261.066 379.153,260.4 358.5,259C 355.774,258.818 353.107,258.318 350.5,257.5C 349.193,256.135 349.193,254.802 350.5,253.5 Z"/></g>
<g><path style="opacity:1" fill="#060f10" d="M 113.5,255.5 C 138.852,255.989 164.186,256.823 189.5,258C 190.022,258.561 190.355,259.228 190.5,260C 189.318,261.735 187.651,262.735 185.5,263C 161.792,263.158 138.126,262.158 114.5,260C 113.62,258.644 113.286,257.144 113.5,255.5 Z"/></g>
<g><path style="opacity:1" fill="#008ce2" d="M 56.5,256.5 C 65.1768,256.763 73.8434,257.263 82.5,258C 90.5303,260.034 95.0303,265.2 96,273.5C 96.4609,281.669 96.9609,289.836 97.5,298C 97.8471,304.618 96.1804,310.618 92.5,316C 89.7536,317.75 86.7536,318.75 83.5,319C 75.5259,320.189 67.5259,320.522 59.5,320C 52.6111,318.74 49.1111,314.574 49,307.5C 48.3333,293.167 48.3333,278.833 49,264.5C 50.3532,260.65 52.8532,257.983 56.5,256.5 Z"/></g>
<g><path style="opacity:1" fill="#060e0f" d="M 113.5,271.5 C 138.848,272.011 164.182,272.844 189.5,274C 190.022,274.561 190.355,275.228 190.5,276C 189.008,277.885 187.008,278.885 184.5,279C 181,279.167 177.5,279.333 174,279.5C 154.166,278.253 134.333,277.086 114.5,276C 113.62,274.644 113.286,273.144 113.5,271.5 Z"/></g>
<g><path style="opacity:1" fill="#0c8291" d="M 455.5,280.5 C 455.5,282.5 455.5,284.5 455.5,286.5C 447.5,286.5 439.5,286.5 431.5,286.5C 438.982,285.508 446.648,285.175 454.5,285.5C 454.216,283.585 454.549,281.919 455.5,280.5 Z"/></g>
<g><path style="opacity:1" fill="#050d0e" d="M 113.5,287.5 C 135.481,288.278 157.481,288.778 179.5,289C 183.191,289.42 186.858,289.92 190.5,290.5C 190.439,293.05 189.106,294.55 186.5,295C 182.667,295.167 178.833,295.333 175,295.5C 154.829,294.345 134.662,293.178 114.5,292C 113.62,290.644 113.286,289.144 113.5,287.5 Z"/></g>
<g><path style="opacity:1" fill="#6f6f6f" d="M 230.5,291.5 C 243.456,292.926 256.456,293.593 269.5,293.5C 269.5,295.833 269.5,298.167 269.5,300.5C 257.273,302.228 249.606,309.061 246.5,321C 247.826,332.492 254.159,339.325 265.5,341.5C 265.5,343.833 265.5,346.167 265.5,348.5C 253.803,348.746 242.136,348.413 230.5,347.5C 230.5,328.833 230.5,310.167 230.5,291.5 Z"/></g>
<g><path style="opacity:1" fill="#6e6e6e" d="M 283.5,292.5 C 305.492,293.185 327.492,293.685 349.5,294C 354.922,295.356 360.255,297.023 365.5,299C 368.384,300.884 370.551,303.384 372,306.5C 373.919,322.075 374.753,337.742 374.5,353.5C 374.919,388.348 372.753,423.015 368,457.5C 367.161,462.679 364.661,466.846 360.5,470C 336.593,472.944 312.926,471.611 289.5,466C 282.464,463.631 278.297,458.798 277,451.5C 273.701,400.494 273.701,349.494 277,298.5C 278.494,295.686 280.66,293.686 283.5,292.5 Z"/></g>
<g><path style="opacity:1" fill="#717171" d="M 484.5,294.5 C 485.978,294.238 487.311,294.571 488.5,295.5C 486.14,308.948 481.64,321.614 475,333.5C 466.322,343.088 455.489,348.255 442.5,349C 422.832,349.308 403.165,349.141 383.5,348.5C 383.667,334.163 383.5,319.829 383,305.5C 382.394,302.287 381.227,299.287 379.5,296.5C 414.664,295.833 449.664,295.167 484.5,294.5 Z"/></g>
<g><path style="opacity:1" fill="#050808" d="M 290.5,301.5 C 296.888,301.846 303.222,302.679 309.5,304C 322.833,304.333 336.167,304.667 349.5,305C 357.601,305.286 363.101,309.12 366,316.5C 367.116,324.093 367.616,331.759 367.5,339.5C 366.184,370.492 365.018,401.492 364,432.5C 362.564,438.87 358.731,443.037 352.5,445C 336.833,445.667 321.167,445.667 305.5,445C 298.722,444.379 292.389,442.379 286.5,439C 282.918,435.263 281.085,430.763 281,425.5C 279.233,391.504 279.233,357.504 281,323.5C 281.488,318.393 282.488,313.393 284,308.5C 285.694,305.642 287.861,303.309 290.5,301.5 Z"/></g>
<g><path style="opacity:1" fill="#060e0f" d="M 113.5,303.5 C 135.143,304.289 156.81,304.789 178.5,305C 182.491,305.642 186.491,306.142 190.5,306.5C 190.439,309.05 189.106,310.55 186.5,311C 177.5,311.667 168.5,311.667 159.5,311C 144.497,310.024 129.497,309.024 114.5,308C 113.62,306.644 113.286,305.144 113.5,303.5 Z"/></g>
<g><path style="opacity:1" fill="#6a6a6a" d="M 262.5,307.5 C 264.5,307.5 266.5,307.5 268.5,307.5C 266.889,316.78 265.555,326.114 264.5,335.5C 248.147,327.117 247.481,317.784 262.5,307.5 Z"/></g>
<g><path style="opacity:1" fill="#13d7f0" d="M 295.5,308.5 C 313.083,310.779 330.749,311.946 348.5,312C 354.113,312.545 357.946,315.378 360,320.5C 360.154,356.51 359.487,392.51 358,428.5C 357.177,432.664 355.01,435.831 351.5,438C 336.568,439.617 321.568,439.951 306.5,439C 301.6,438.478 296.934,437.145 292.5,435C 289.894,433.062 288.061,430.562 287,427.5C 286.333,394.833 286.333,362.167 287,329.5C 287.202,324.011 288.202,318.678 290,313.5C 291.73,311.598 293.563,309.931 295.5,308.5 Z"/></g>
<g><path style="opacity:1" fill="#040a0d" d="M 316.5,319.5 C 325.213,319.248 333.88,319.748 342.5,321C 346.499,321.668 349.332,323.835 351,327.5C 352.631,347.769 352.964,368.102 352,388.5C 351.208,390.587 350.041,392.421 348.5,394C 343.844,395.844 339.01,396.677 334,396.5C 324.871,395.312 315.704,394.479 306.5,394C 302.254,392.802 299.087,390.302 297,386.5C 292.313,368.737 291.313,350.737 294,332.5C 294.606,329.452 296.106,326.952 298.5,325C 304.428,322.529 310.428,320.696 316.5,319.5 Z"/></g>
<g><path style="opacity:1" fill="#008ce2" d="M 320.5,325.5 C 326.925,325.13 333.258,325.63 339.5,327C 343.428,328.593 345.928,331.427 347,335.5C 347.667,350.5 347.667,365.5 347,380.5C 346.27,384.896 343.77,387.73 339.5,389C 330.438,389.881 321.438,389.548 312.5,388C 306.667,386.167 302.833,382.333 301,376.5C 299.449,362.875 299.116,349.208 300,335.5C 301.167,331.667 303.667,329.167 307.5,328C 311.94,327.034 316.273,326.201 320.5,325.5 Z"/></g>
<g><path style="opacity:1" fill="#020709" d="M 156.5,342.5 C 164.875,342.316 173.208,342.816 181.5,344C 184.937,345.105 187.437,347.272 189,350.5C 190.619,370.782 190.952,391.115 190,411.5C 188.878,413.624 187.378,415.457 185.5,417C 180.75,418.077 175.917,418.577 171,418.5C 162.488,418.213 153.988,417.713 145.5,417C 138.667,415.5 134.5,411.333 133,404.5C 129.669,386.81 129.669,369.144 133,351.5C 134.873,349.291 137.04,347.458 139.5,346C 145.229,344.432 150.896,343.265 156.5,342.5 Z"/></g>
<g><path style="opacity:1" fill="#008be1" d="M 151.5,348.5 C 159.174,348.334 166.841,348.5 174.5,349C 179.155,349.73 182.321,352.23 184,356.5C 185.619,371.765 185.952,387.099 185,402.5C 183.969,407.202 181.136,410.368 176.5,412C 168.125,412.738 159.792,412.405 151.5,411C 143.479,408.975 138.979,403.808 138,395.5C 137.037,383.841 136.704,372.175 137,360.5C 139.319,353.339 144.153,349.339 151.5,348.5 Z"/></g>
<g><path style="opacity:1" fill="#050d0e" d="M 49.5,356.5 C 70.1111,358.307 90.7777,359.474 111.5,360C 114.167,360.333 116.833,360.667 119.5,361C 120.833,362.333 120.833,363.667 119.5,365C 94.8489,364.426 70.1822,363.759 45.5,363C 43.842,362.275 43.342,361.108 44,359.5C 45.8761,358.391 47.7095,357.391 49.5,356.5 Z"/></g>
<g><path style="opacity:1" fill="#6c6c6c" d="M 264.5,404.5 C 264.5,406.5 264.5,408.5 264.5,410.5C 255.5,410.5 246.5,410.5 237.5,410.5C 235.5,410.5 233.5,410.5 231.5,410.5C 231.142,392.834 230.809,375.167 230.5,357.5C 241.833,357.5 253.167,357.5 264.5,357.5C 264.5,373.167 264.5,388.833 264.5,404.5 Z"/></g>
<g><path style="opacity:1" fill="#060f10" d="M 50.5,372.5 C 73.494,373.956 96.494,375.456 119.5,377C 120.833,378.333 120.833,379.667 119.5,381C 94.8463,380.433 70.1797,379.766 45.5,379C 43.842,378.275 43.342,377.108 44,375.5C 46.166,374.269 48.3326,373.269 50.5,372.5 Z"/></g>
<g><path style="opacity:1" fill="#050d0e" d="M 46.5,389.5 C 70.8907,389.57 95.2241,390.737 119.5,393C 120.517,394.049 120.684,395.216 120,396.5C 117.925,397.134 115.759,397.468 113.5,397.5C 90.1471,396.5 66.8138,395.5 43.5,394.5C 43.31,392.041 44.31,390.374 46.5,389.5 Z"/></g>
<g><path style="opacity:1" fill="#070f11" d="M 301.5,402.5 C 316.782,404.328 332.116,405.828 347.5,407C 351.604,409.335 351.437,411.168 347,412.5C 331.191,411.38 315.357,410.546 299.5,410C 297.82,409.653 296.82,408.653 296.5,407C 297.761,405.038 299.428,403.538 301.5,402.5 Z"/></g>
<g><path style="opacity:1" fill="#444444" d="M 264.5,404.5 C 265.468,406.607 265.802,408.941 265.5,411.5C 255.985,411.827 246.652,411.494 237.5,410.5C 246.5,410.5 255.5,410.5 264.5,410.5C 264.5,408.5 264.5,406.5 264.5,404.5 Z"/></g>
<g><path style="opacity:1" fill="#f3f3f3" d="M 231.5,420.5 C 242.807,421.384 254.14,421.717 265.5,421.5C 265.5,425.167 265.5,428.833 265.5,432.5C 254.167,432.5 242.833,432.5 231.5,432.5C 231.5,428.5 231.5,424.5 231.5,420.5 Z"/></g>
<g><path style="opacity:1" fill="#040c0d" d="M 300.5,420.5 C 315.465,421.95 330.465,423.117 345.5,424C 349.459,423.791 351.126,425.625 350.5,429.5C 333.844,428.813 317.178,428.313 300.5,428C 298.427,427.882 297.093,426.882 296.5,425C 297.344,422.993 298.677,421.493 300.5,420.5 Z"/></g>
<g><path style="opacity:1" fill="#050505" d="M 117.5,449.5 C 131.742,450.217 136.575,457.217 132,470.5C 124.599,476.748 116.932,477.082 109,471.5C 104.969,466.318 104.635,460.985 108,455.5C 110.848,452.848 114.015,450.848 117.5,449.5 Z"/></g>
<g><path style="opacity:1" fill="#050505" d="M 322.5,451.5 C 330.036,450.92 332.536,454.253 330,461.5C 323.852,467.571 319.352,466.571 316.5,458.5C 317.115,454.891 319.115,452.558 322.5,451.5 Z"/></g>
<g><path style="opacity:1" fill="#6c6c6c" d="M 115.5,454.5 C 121.982,453.898 126.315,456.565 128.5,462.5C 126.432,468.868 122.098,471.035 115.5,469C 111.747,467.326 110.247,464.493 111,460.5C 112.332,458.34 113.832,456.34 115.5,454.5 Z"/></g>
</svg>
